<?xml version="1.0" encoding="UTF-8"?>
<svg id="Layer_1" xmlns="http://www.w3.org/2000/svg" version="1.1" viewBox="0 0 120 28.36">
  <!-- Generator: Adobe Illustrator 30.2.1, SVG Export Plug-In . SVG Version: 2.1.1 Build 1)  -->
  <defs>
    <style>
      .st0 {
        fill: #fff;
      }
    </style>
  </defs>
  <path class="st0" d="M120,17.17c-.07.28-.12.56-.21.83-.57,1.58-1.74,2.55-3.29,3.08-1.82.62-3.64.62-5.38-.26-1.6-.8-2.4-2.15-2.66-3.88,0-.06,0-.11,0-.17.05-.01.11-.03.16-.03h3.72c.19,0,.25.07.3.24.35,1.11,2.11,1.49,2.9.62.4-.42.39-1.08-.03-1.49-.29-.28-.63-.51-1-.66-.75-.3-1.54-.51-2.3-.78-.55-.19-1.1-.41-1.62-.67-2.34-1.15-2.64-4.09-1.01-5.85.97-1.03,2.27-1.68,3.67-1.85,1.18-.21,2.39-.08,3.49.38,1.74.76,2.6,2.15,2.81,4.01h-4.11c-.25-.99-1.15-1.4-2.07-.94-.64.32-.79,1.03-.25,1.49.35.29.75.52,1.18.67.77.28,1.58.45,2.35.73.64.23,1.25.52,1.83.88.81.53,1.34,1.38,1.47,2.34.02.07.04.14.06.21v1.1s-.01,0-.01,0ZM7.09,15.28C2.89,14.98-.28,11.32.02,7.11.24,4.13,2.18,1.54,4.99.5c1.79-.68,3.76-.64,5.53.09,1.83.74,3.15,2.03,4.05,3.82.44-.94,1.07-1.78,1.86-2.46C18.71.02,21.31-.51,24.11.51c2.8,1.02,4.42,3.08,4.92,6,.3,1.68-.01,3.4-.88,4.87-1.79,3.14-3.6,6.28-5.42,9.4-.06.11-.16.18-.27.21-1.58.01-3.16,0-4.81,0l3.3-5.72c-2.92-.33-5.03-1.78-6.38-4.36-.12.21-.24.44-.36.64l-5.3,9.19c-.08.14-.14.25-.35.25-1.53-.01-3.06,0-4.58,0-.06,0-.11,0-.17-.02,1.1-1.89,2.18-3.78,3.28-5.68h0ZM21.5,4.16c-1.93-.02-3.5,1.53-3.52,3.46-.02,1.93,1.53,3.5,3.46,3.52.04,0,.07,0,.11,0,1.93-.01,3.48-1.58,3.47-3.51-.01-1.93-1.58-3.48-3.51-3.47h0ZM4.15,7.66c0,1.94,1.56,3.51,3.5,3.52s3.51-1.56,3.52-3.5-1.56-3.51-3.5-3.52c0,0-.01,0-.02,0-1.42,0-2.7.85-3.24,2.17-.17.42-.26.87-.26,1.33h0ZM93.16,7.31c-.61.14-1.15.49-1.51,1-.12.13-.12.32,0,.45,1.79,2.55,1.03,7.35-3.46,8.38-1.19.27-2.43.25-3.61-.04-.28-.08-.55-.17-.82-.28-.3.41-.21.94.28,1.15.43.19.89.3,1.35.33,1.16.03,2.34-.06,3.49-.04.66,0,1.32.1,1.95.28,1.91.62,3.13,2.49,2.92,4.49-.2,2.23-1.31,3.83-3.42,4.64-2.52,1-5.34.97-7.84-.08-1.38-.56-2.36-1.53-2.69-3.03-.3-1.34-.02-2.51,1.04-3.45l.08-.09c-1.81-2.34-1.82-3.75-.11-5.98-.27-.64-.6-1.21-.78-1.84-.71-2.51.52-5.06,2.96-6.24,1.54-.73,3.27-.93,4.93-.56.17.06.36-.02.44-.18.66-.94,1.63-1.6,2.75-1.86.16-.04.27-.05.37.12.55.94,1.11,1.86,1.69,2.84h0ZM88.67,11.78c0-1.33-1.07-2.42-2.4-2.43-1.33,0-2.42,1.07-2.43,2.4,0,.99.59,1.88,1.5,2.25.59.24,1.25.24,1.84,0,.9-.37,1.49-1.24,1.49-2.22,0,0,0,0,0,0ZM86.8,21.41v.04h-1.12c-.12,0-.23.02-.35.05-.69.09-1.24.6-1.39,1.28-.12.57.19,1.19.82,1.57.17.11.36.19.55.26.89.32,1.86.34,2.76.06.37-.12.72-.32,1.01-.58.47-.41.65-1.07.46-1.67-.19-.61-.7-.85-1.28-.92-.49-.07-.98-.07-1.47-.1,0,0,.01,0,.01,0ZM40.15,7.87V.49h4.29v20.48h-4.04v-1.45c-.07.05-.14.1-.2.16-1.18,1.4-2.73,1.86-4.49,1.79-3.9-.15-6.51-3.03-6.88-6.62-.24-2.4.31-4.58,1.91-6.42,1.48-1.7,3.4-2.35,5.62-2.25,1.43.06,2.79.65,3.79,1.67ZM40.39,13.82c0-2.02-1.64-3.66-3.65-3.66s-3.66,1.64-3.66,3.65,1.64,3.66,3.65,3.66c2.02,0,3.66-1.64,3.66-3.65ZM49.58,15.19c.12,1.36,1.17,2.45,2.52,2.61,1.18.16,2.22-.09,3.1-.94.07-.07.17-.12.27-.13h4.28s0,.09,0,.14c-1.06,2.19-2.66,3.8-5.1,4.41-4.17,1.06-8.52-1.83-9.12-6.08-.46-3.19.54-5.84,3.22-7.69,4.34-3,10.31-.58,11.46,4.58.2.91.25,1.84.15,2.76-.03.28-.12.34-.38.34-3.32-.01-6.64-.01-9.97,0l-.41-.02h0ZM56.07,12.31c-.13-1.37-1.53-2.45-3.17-2.45-1.7,0-3.03,1.01-3.19,2.45h6.36ZM107.5,20.99h-4.3v-7.76c0-.53-.07-1.06-.19-1.58-.21-.88-.82-1.34-1.72-1.39-.31-.02-.62-.01-.93.03-1.01.18-1.62.89-1.75,2-.04.32-.05.64-.06.96v7.74h-4.28V6.75h4.04v1.44c.08-.08.15-.16.21-.24.7-.97,1.79-1.58,2.97-1.68,1.78-.16,3.36.24,4.68,1.51.76.75,1.21,1.76,1.26,2.82.05.56.06,1.13.06,1.7v8.29s.01.39.01.39ZM72.18,10.69h-4.1c-.31-1.01-1.16-1.4-2.07-.94-.64.32-.79,1.02-.26,1.49.35.29.75.52,1.18.67.77.28,1.57.48,2.36.72.85.23,1.63.66,2.27,1.26,1.13,1.12,1.42,2.96.71,4.51-.72,1.55-2.01,2.4-3.6,2.83-1.59.43-3.15.4-4.67-.29-1.73-.79-2.64-2.19-2.89-4.04,0-.05,0-.09,0-.14.08-.01.15-.02.22-.02h3.62c.12-.02.23.03.29.13.02.03.03.07.04.11.35,1.1,2.07,1.48,2.88.64.42-.44.4-1.14-.04-1.56-.02-.02-.05-.04-.07-.06-.32-.26-.68-.47-1.06-.62-.87-.33-1.78-.57-2.66-.9-.52-.19-1.02-.43-1.49-.72-1.62-1.04-2.12-3.18-1.13-4.84.32-.54.74-1.01,1.24-1.39,1.98-1.43,4.17-1.71,6.43-.83,1.77.71,2.61,2.14,2.82,4.01ZM73.96,6.71h4.25v14.26h-4.25V6.71ZM73.52,2.64c0-1.42,1.15-2.57,2.57-2.57,1.42,0,2.57,1.15,2.57,2.57,0,1.05-.63,1.99-1.6,2.38-.63.26-1.34.26-1.97,0-.96-.4-1.58-1.33-1.57-2.37h0Z"/>
</svg>