<?xml version="1.0" encoding="UTF-8"?>
<svg id="Layer_1" xmlns="http://www.w3.org/2000/svg" version="1.1" viewBox="0 0 210 59">
  <!-- Generator: Adobe Illustrator 30.2.1, SVG Export Plug-In . SVG Version: 2.1.1 Build 1)  -->
  <defs>
    <style>
      .st0 {
        fill: #fff;
        fill-rule: evenodd;
      }
    </style>
  </defs>
  <path class="st0" d="M206.62,31.93c.44-.52,1.23-.49,1.63.06h0l1.53,2.1c.29.4.29.96-.01,1.35-2.66,3.45-7.33,6.78-12.96,7.1-4.44.25-8.11-1.43-10.1-4.61-.39-.63-1.27-.67-1.71-.07-2.37,3.18-5.23,5.66-8.21,5.83-5.32.3-6.82-3.26-5.5-11.12.13-.78-.55-1.44-1.29-1.25-1.1.29-2.27.42-3.46.32-.49-.04-.96.26-1.11.75-1.97,6.46-6.65,12.47-12.71,12.82-3.87.22-9.65-1.99-9.07-11.25.05-.75-.63-1.35-1.32-1.14-1.21.37-2.52.54-3.85.43-.49-.04-.95.26-1.1.75-1.97,6.46-6.65,12.47-12.71,12.82-3.87.22-9.65-1.99-9.07-11.25.05-.75-.63-1.35-1.32-1.14-1.21.37-2.52.55-3.85.43-.49-.04-.95.26-1.1.75-1.97,6.46-6.65,12.47-12.71,12.82-2.75.16-6.47-.92-8.18-4.89-.33-.77-1.32-.88-1.81-.22-2.39,3.26-5.31,5.84-8.35,6.02-3.12.18-4.83-1.07-5.57-3.3-.26-.79-1.25-.97-1.78-.35-2.13,2.5-4.55,4.34-7.01,4.48-3.78.22-5.96-2.58-6.14-5.98-.21-3.96,1.51-8.6,3.42-13.67.27-.7-.22-1.47-.94-1.5-1.1-.05-2.36-.16-3.55-.38-.53-.1-1.05.23-1.2.77-2.26,8.08-5.73,16-8.65,20.68-.33.52-1,.66-1.49.3l-2.23-1.64c-.46-.34-.58-.99-.28-1.49,4.23-6.77,7.98-17.37,9.27-25.2.08-.5.49-.87.98-.9l2.97-.17c.68-.04,1.22.6,1.09,1.29v.07c-.12.62.29,1.21.89,1.29,2.66.37,6.64.41,9.34.31.76-.03,1.3.76,1.02,1.49-2.17,5.76-5.07,13.75-4.9,16.92.08,1.43.71,2.21,1.82,2.14,2.12-.12,5.39-4.39,7.86-9.14.05-.08.08-.18.1-.27.83-3.72,2.07-7.87,3.32-12.06l.08-.26c.13-.44.51-.74.95-.77l3.56-.2c.73-.04,1.28.7,1.06,1.43-.18.6-.37,1.2-.55,1.79-3.13,10.26-5.76,18.87-2.22,18.67,2.31-.13,5.59-4.06,8.41-9.65.05-.09.08-.19.1-.29.14-.73.31-1.49.52-2.29,1.64-6.57,3.51-13.07,5.38-19.59.58-2.01,1.15-4.02,1.72-6.04.13-.45.51-.76.95-.79l3.65-.21c.74-.04,1.29.7,1.06,1.44-1.46,4.57-2.98,9.45-4.43,14.14-.3.99.75,1.81,1.59,1.24,1.44-.99,3.11-1.64,4.72-1.73,4.11-.23,6.91,3.15,7.17,8.24.01.27.03.56.04.85.01.56.44,1.02.98,1.07,1.93.17,3.91-.4,5.44-1.77.16-.14.26-.33.32-.53,1.51-5.88,3.19-11.71,4.86-17.56.57-2,1.15-4,1.71-6.01.13-.45.51-.76.95-.79l3.65-.21c.74-.04,1.29.7,1.06,1.44-1.46,4.57-2.98,9.45-4.43,14.14-.3.99.75,1.81,1.59,1.24,1.44-.99,3.11-1.64,4.72-1.73,4.11-.23,6.91,3.15,7.18,8.24.01.27.03.56.04.85.01.56.44,1.02.98,1.07,1.93.17,3.91-.4,5.44-1.77.16-.14.26-.33.32-.53,1.51-5.88,3.18-11.71,4.86-17.56.57-2,1.15-4,1.71-6.01.13-.45.51-.76.95-.79l3.65-.21c.74-.04,1.29.7,1.06,1.44-1.46,4.57-2.98,9.45-4.43,14.14-.3.99.75,1.81,1.59,1.24,1.44-.99,3.11-1.64,4.72-1.73,4.11-.23,6.91,3.15,7.18,8.24.01.27.03.56.04.85.02.56.44,1.02.97,1.07,1.87.17,3.79-.37,5.29-1.63.17-.14.28-.34.34-.55,1.72-6.65,4.26-15.35,6.7-23.68.13-.44.51-.75.95-.77L184.34,0c.73-.04,1.28.69,1.06,1.42-3.36,11.16-6.1,20.92-7.61,26.67-2.01,7.81-2.09,10.06.2,9.93,1.92-.11,4.5-2.83,6.93-6.94.1-.16.15-.34.15-.53.32-8.23,5.36-15.71,12.86-16.14,5.02-.29,7.77,3.51,7.97,7.24.38,7.13-6.67,11.68-13.5,11.26-.79-.05-1.37.8-1.02,1.55.95,2.04,2.96,3.18,6.39,2.98,3.26-.18,6.68-3,8.83-5.51ZM93.75,33.93c-1.62,6.49.35,9.04,2.89,8.89,4.18-.24,8.22-7.89,7.91-13.8-.14-2.58-1.65-3.92-3.41-3.82-2.93.17-6.09,3.55-7.39,8.73ZM121.81,32.32c-1.62,6.49.35,9.04,2.89,8.89h0c4.18-.24,8.22-7.89,7.91-13.8-.13-2.58-1.65-3.92-3.41-3.82-2.93.17-6.09,3.55-7.39,8.73ZM149.86,30.71c-1.62,6.49.35,9.04,2.89,8.89h0c4.17-.24,8.22-7.89,7.91-13.8-.14-2.58-1.65-3.92-3.41-3.82-2.93.17-6.09,3.55-7.39,8.73ZM200.58,22.22c-.02-1.7-1.07-2.94-2.77-2.84h0c-3.33.19-5.94,3.8-6.77,8.18-.13.7.38,1.34,1.06,1.33,4.3-.11,8.62-2.95,8.48-6.67ZM44.35,25.38c-.44-13.19-9.01-21.89-21.68-21.44-5.44.25-11.67,2.31-16.35,6-.44.35-.55.99-.26,1.47l1.99,3.24c.34.55,1.06.67,1.55.26,3.56-2.96,8.43-4.9,13.11-5.11,8.68-.36,15.06,5.2,15.44,15.94.47,12.5-7.94,26.81-21.45,27.58-.47.03-.96.04-1.45.04-.69,0-1.2-.67-1.03-1.37,2.61-10.52,5.65-21.79,8.75-32.29.22-.73-.33-1.46-1.06-1.41l-3.95.23c-.44.03-.82.33-.95.78-2.98,10.31-5.96,21.5-8.65,31.99-.15.61-.77.95-1.34.76-1.4-.48-2.68-1.02-3.77-1.65-.52-.31-1.18-.09-1.45.47l-1.7,3.55c-.25.52-.07,1.17.43,1.45,3.85,2.18,9.68,3.43,15.55,3.09,19.31-1.11,28.77-18.94,28.26-33.56h0ZM82.3,9.18c-2.35.13-4.43,2.77-4.29,5.56.1,1.83,1.27,3.06,3.1,2.96,2.35-.13,4.49-2.91,4.35-5.56-.1-1.83-1.47-3.05-3.17-2.95Z"/>
</svg>