<svg width="120" height="180" viewBox="0 0 120 180" fill="none" xmlns="http://www.w3.org/2000/svg">
<path d="M0 149.5C0 132.987 13.4315 119.6 30 119.6H60V149.5C60 166.013 46.5685 179.4 30 179.4C13.4315 179.4 0 166.013 0 149.5Z" fill="#24CB71"/>
<path d="M60 0V59.8H90C106.569 59.8 120 46.4133 120 29.9C120 13.3867 106.569 0 90 0L60 0Z" fill="#FF7237"/>
<ellipse cx="89.75" cy="89.7" rx="30" ry="29.9" fill="#00B6FF"/>
<path d="M0 29.9C0 46.4133 13.4315 59.8 30 59.8H60L60 -1.52588e-05H30C13.4315 -1.52588e-05 0 13.3867 0 29.9Z" fill="#FF3737"/>
<path d="M0 89.7C0 106.213 13.4315 119.6 30 119.6L60 119.6L60 59.8H30C13.4315 59.8 0 73.1867 0 89.7Z" fill="#874FFF"/>
</svg>
