<?xml version="1.0" encoding="UTF-8"?>
<svg id="svg745" xmlns="http://www.w3.org/2000/svg" xmlns:svg="http://www.w3.org/2000/svg" version="1.1" viewBox="0 0 1024 267">
  <!-- Generator: Adobe Illustrator 30.2.1, SVG Export Plug-In . SVG Version: 2.1.1 Build 1)  -->
  <defs>
    <style>
      .st0 {
        fill: #fff;
        fill-rule: evenodd;
      }
    </style>
  </defs>
  <path id="path661" class="st0" d="M782.86,7.56c-10.27,0-18.98,8.13-18.98,18.13v215.62c0,10.02,5.71,18.13,15.98,18.13h214.66c10.28,0,21.25-8.12,21.25-18.13V25.69c0-10-7.97-18.13-18.25-18.13h-214.66ZM817.86,39.04c12.43,0,22.49,10.06,22.49,22.49s-10.06,22.49-22.49,22.49-22.49-10.06-22.49-22.49,10.06-22.49,22.49-22.49ZM158.18,39.93c-11.91,0-21.62,9.68-21.62,21.6s9.71,21.6,21.62,21.6,21.58-9.68,21.58-21.6-9.65-21.6-21.58-21.6ZM8.23,43.54v179.92h107.95v-35.98H44.21V43.54H8.23ZM344.08,43.54v179.92h35.98v-59.97l44.37,59.97h42.47l-50.86-65.57,47.98-54.37h-41.98l-41.98,47.98V43.54h-35.98ZM691.92,43.54v74.26h-.35c-7.33-8.85-19.44-15.79-38.94-15.79-31.49,0-56.93,24.67-56.93,61.61,0,38.78,25.82,61.33,55.8,61.33,22,0,34.98-7.13,42.45-15.79h.35v14.29h33.59V43.54h-35.98ZM273.75,102.01c-18.88,0-34.16,9.47-39.33,18.79h-.37v-17.29h-33.9v119.95h35.98v-57.61c0-18.03,8.62-32.35,26.71-32.35,14.9,0,21.27,12.28,21.27,29.94v60.02h35.98v-66.58c0-31.88-10.1-54.87-46.34-54.87ZM526.74,102.01c-40.99,0-62.71,23.98-62.71,58.8,0,39.2,23.98,64.14,61.66,64.14,28.24,0,45.72-9.83,54.21-20.83l-22.4-18.16c-4.85,6.59-15.59,14.99-31.23,14.99-17.92,0-25.73-12.64-28.09-22.98l-.19-3.7h85.32s.66-4.04.66-8.13c0-40.89-21.84-64.14-57.23-64.14h0ZM933.45,102.01c36.24,0,46.34,19.23,46.34,54.87v66.58h-35.98v-60.02c0-15.95-6.37-29.94-21.27-29.94-18.09,0-26.71,12.25-26.71,32.35v57.61h-35.98v-119.95h33.9v17.29h.37c5.17-9.32,20.45-18.79,39.33-18.79h0ZM140.17,103.51v119.95h35.98v-119.95h-35.98ZM799.87,103.51h35.98v119.95h-35.98v-119.95ZM525.66,126c14.63,0,23.92,12.83,23.68,25.49h-51.35c.97-11.89,10.25-25.49,27.67-25.49ZM661.67,129c20.59,0,32.63,13.72,32.63,34.18s-12.04,34.79-32.63,34.79-32.12-15.27-32.12-34.79,11.55-34.18,32.12-34.18Z"/>
</svg>