<?xml version="1.0" encoding="UTF-8"?>
<svg id="Layer_2" data-name="Layer 2" xmlns="http://www.w3.org/2000/svg" viewBox="0 0 138 69">
  <g id="Layer_1-2" data-name="Layer 1">
    <g>
      <path d="M0,69h.63c-.21,0-.42-.01-.63-.02v.02Z"/>
      <path d="M137.37,69h.63v-.02c-.21,0-.42.02-.63.02Z"/>
      <path d="M103.63,35.26c0-.26.01-.51.02-.76h-.15C103.5,15.45,88.05,0,69,0h0c-19.05,0-34.5,15.45-34.5,34.5h0s-.15,0-.15,0c0,.26.02.51.02.76,0,18.63-15.1,33.74-33.74,33.74h136.73c-18.63,0-33.74-15.1-33.74-33.74Z"/>
    </g>
  </g>
</svg>