<?xml version="1.0" encoding="UTF-8"?>
<svg id="Layer_1" xmlns="http://www.w3.org/2000/svg" version="1.1" viewBox="0 0 102 28">
  <!-- Generator: Adobe Illustrator 30.2.1, SVG Export Plug-In . SVG Version: 2.1.1 Build 1)  -->
  <defs>
    <style>
      .st0 {
        fill: #fff;
      }
    </style>
  </defs>
  <path class="st0" d="M28.18,19.06c-2.12-.12-4.05-1.26-5.18-3.06.67-5.34,2.62-7,5.2-7s4.54,2,4.54,5-2,5-4.54,5M28.2,5.66c-3.76-.15-7.09,2.41-7.9,6.08-.86-1.79-1.5-3.68-1.93-5.62h-6.37v7.9c0,2.87-1.3,5-3.85,5s-4-2.12-4-5v-7.9H.49v7.9c-.08,2.19.67,4.33,2.11,5.98,1.42,1.55,3.44,2.4,5.54,2.35,4.41,0,7.5-3.39,7.5-8.24v-5.34c.75,2.87,1.99,5.6,3.66,8.05l-1.96,11.18h3.72l1.29-7.92c.43.37.88.7,1.36,1,1.24.78,2.67,1.23,4.14,1.28h.34c4.47.05,8.14-3.54,8.18-8.02,0-.11,0-.23,0-.34.11-4.48-3.44-8.2-7.93-8.31-.09,0-.18,0-.26,0"/>
  <path class="st0" d="M80.8,7.86v-1.68h-3.6v15.63h3.65v-6.12c0-3.77.34-6.48,5.4-6.13v-3.56c-2.36-.18-4.2.31-5.45,1.87"/>
  <polygon class="st0" points="55.51 6.17 52.87 17.11 50.05 6.17 45.41 6.17 42.59 17.11 39.95 6.17 36.26 6.17 40.31 21.82 44.69 21.82 47.73 10.71 50.74 21.82 55.12 21.82 59.4 6.17 55.51 6.17"/>
  <path class="st0" d="M67.42,19.07c-2.59,0-4.53-2.05-4.53-5s2-5,4.53-5,4.58,1.93,4.58,4.93-2,5-4.54,5M67.46,5.65c-4.47-.06-8.15,3.51-8.21,7.99,0,.12,0,.24,0,.36-.16,4.51,3.37,8.3,7.89,8.46,4.51.16,8.3-3.37,8.46-7.89,0-.19,0-.38,0-.57.11-4.48-3.43-8.2-7.91-8.31-.09,0-.18,0-.27,0"/>
  <path class="st0" d="M91.47,14.13h.84l5.09,7.69h4.11l-5.85-8.53c2.88-1.19,4.75-4,4.74-7.11h-3.63c0,3.37-2.66,4.65-5.3,4.65V0h-3.65v21.82h3.64v-7.69Z"/>
</svg>